<?xml version="1.0" encoding="utf-8"?>
<!-- Generator: Adobe Illustrator 26.2.1, SVG Export Plug-In . SVG Version: 6.00 Build 0)  -->
<svg version="1.1" id="Layer_1" xmlns="http://www.w3.org/2000/svg" xmlns:xlink="http://www.w3.org/1999/xlink" x="0px" y="0px"
	 viewBox="0 0 1024 1024" style="enable-background:new 0 0 1024 1024;" xml:space="preserve">
<style type="text/css">
	.st0{fill:#DADADA;}
	.st1{fill:url(#SVGID_1_);}
	.st2{fill:url(#SVGID_00000116235219271378575880000013381877892345019781_);}
</style>
<g id="Layer_3">
	<path class="st0" d="M512,0L512,0c282.8,0,512,229.2,512,512v0c0,282.8-229.2,512-512,512h0C229.2,1024,0,794.8,0,512v0
		C0,229.2,229.2,0,512,0z"/>
</g>
<g id="Layer_2_00000177471132319542420030000001548475304152294542_">
	<g>
		
			<linearGradient id="SVGID_1_" gradientUnits="userSpaceOnUse" x1="147.52" y1="512.005" x2="876.48" y2="512.005" gradientTransform="matrix(1 0 0 -1 0 1024)">
			<stop  offset="0" style="stop-color:#ED696C"/>
			<stop  offset="1" style="stop-color:#F2979C"/>
		</linearGradient>
		<path class="st1" d="M797.8,235.8l-28.4,40l-25.8,33.8l-0.2,0.3l-0.2,0.3L614.4,491.6l-0.1,0.2l-0.1,0.2l-25.5,37.6L460,710.8
			l-0.1,0.1l-0.1,0.1l-23.5,34L373.2,834l-98.1-92l-34.1-33.8L241,708l-0.1-0.1l-61.6-59.5l137.1-90.9l0.3-0.2l0.3-0.2l52.1-37.5
			l273.1-181.2l52-34l0,0l0,0L797.8,235.8 M876.5,159.7l-193.2,128l-52,34L357.8,503.1l-52.4,37.8L147.5,645.5l79.5,76.8l34.3,34
			l115.1,107.9l76.5-107.9l23.5-34l128.8-181.4l25.6-37.8l128.8-181.4l26-34L876.5,159.7L876.5,159.7z"/>
	</g>
	
		<linearGradient id="SVGID_00000133490861272005218300000007240804144533211012_" gradientUnits="userSpaceOnUse" x1="451.2175" y1="682.1475" x2="674.9725" y2="458.3925" gradientTransform="matrix(1 0 0 -1 0 1024)">
		<stop  offset="0" style="stop-color:#ED696C"/>
		<stop  offset="1" style="stop-color:#F2979C"/>
	</linearGradient>
	<path style="fill:url(#SVGID_00000133490861272005218300000007240804144533211012_);" d="M261.2,756.4h191.5l-76.5,107.9
		L261.2,756.4z M227,722.3h249.3l128.8-181.4H305.4L147.5,645.5L227,722.3z M357.8,503.1h272.8l128.8-181.4H631.3L357.8,503.1z
		 M683.3,287.7h102.2l91-128L683.3,287.7z"/>
</g>
</svg>
